<svg width="20" height="20" viewBox="0 0 20 20" fill="none" xmlns="http://www.w3.org/2000/svg">
<path d="M9.99984 8.66667C11.2865 8.66667 12.3332 7.61967 12.3332 6.33333C12.3332 5.047 11.2865 4 9.99984 4C8.71317 4 7.6665 5.047 7.6665 6.33333C7.6665 7.61967 8.71317 8.66667 9.99984 8.66667ZM9.99984 4.66667C10.9188 4.66667 11.6665 5.41433 11.6665 6.33333C11.6665 7.25233 10.9188 8 9.99984 8C9.08084 8 8.33317 7.25233 8.33317 6.33333C8.33317 5.41433 9.08084 4.66667 9.99984 4.66667Z" fill="black"/>
<path d="M9.94117 18.2523L15.0548 10.8667C16.9728 8.30967 16.6955 4.10667 14.4612 1.87267C13.2538 0.665 11.6485 0 9.94117 0C8.23384 0 6.62851 0.665 5.42117 1.87233C3.18684 4.10633 2.90951 8.30933 4.81984 10.8563L9.94117 18.2523ZM5.89251 2.34367C6.97417 1.26233 8.41184 0.666667 9.94117 0.666667C11.4705 0.666667 12.9082 1.26233 13.9898 2.34367C16.0065 4.36 16.2548 8.156 14.5142 10.4767L9.94117 17.081L5.36084 10.4667C3.62751 8.156 3.87617 4.36 5.89251 2.34367Z" fill="black"/>
<path d="M14.039 14.3356C13.8557 14.3133 13.6903 14.4446 13.669 14.6276C13.6477 14.8106 13.7783 14.9763 13.961 14.9976C17.4663 15.4103 19.3333 16.5223 19.3333 17.1666C19.3333 18.0713 15.7827 19.3333 10 19.3333C4.21733 19.3333 0.666667 18.0713 0.666667 17.1666C0.666667 16.5223 2.53367 15.4103 6.039 14.9976C6.22167 14.9763 6.35233 14.8103 6.331 14.6276C6.30933 14.4446 6.144 14.3126 5.961 14.3356C2.45133 14.7489 0 15.9129 0 17.1666C0 18.5746 3.435 19.9999 10 19.9999C16.565 19.9999 20 18.5746 20 17.1666C20 15.9129 17.5487 14.7489 14.039 14.3356Z" fill="black"/>
</svg>
