<svg width="147" height="20" viewBox="0 0 147 20" fill="none" xmlns="http://www.w3.org/2000/svg">
<path d="M3.89502 16.5342H11.9639V19H0.806641V1.22656H3.89502V16.5342ZM24.9702 11.0654H17.6704V16.5342H26.2031V19H14.582V1.22656H26.1177V3.7168H17.6704V8.62402H24.9702V11.0654ZM42.5908 16.6929C41.9479 17.5311 41.0568 18.1659 39.9175 18.5972C38.7782 19.0285 37.4842 19.2441 36.0356 19.2441C34.5464 19.2441 33.228 18.9064 32.0806 18.231C30.9331 17.5555 30.0461 16.5911 29.4194 15.3379C28.8009 14.0765 28.4795 12.6076 28.4551 10.9312V9.53955C28.4551 6.854 29.098 4.75846 30.3838 3.25293C31.6696 1.73926 33.464 0.982422 35.7671 0.982422C37.7446 0.982422 39.3153 1.4707 40.479 2.44727C41.6427 3.42383 42.3426 4.83171 42.5786 6.6709H39.5513C39.2095 4.5306 37.9684 3.46045 35.8281 3.46045C34.4447 3.46045 33.3908 3.96094 32.6665 4.96191C31.9504 5.95475 31.5801 7.41553 31.5557 9.34424V10.7114C31.5557 12.632 31.9585 14.1253 32.7642 15.1914C33.578 16.2493 34.7051 16.7783 36.1455 16.7783C37.7243 16.7783 38.8473 16.4202 39.5146 15.7041V12.2251H35.8525V9.88135H42.5908V16.6929ZM56.6226 11.0654H49.3228V16.5342H57.8555V19H46.2344V1.22656H57.77V3.7168H49.3228V8.62402H56.6226V11.0654ZM74.7192 19H71.6309L63.7085 6.39014V19H60.6201V1.22656H63.7085L71.6553 13.8853V1.22656H74.7192V19ZM78.6191 19V1.22656H83.8682C85.4388 1.22656 86.8304 1.5765 88.043 2.27637C89.2637 2.97624 90.2077 3.96908 90.875 5.25488C91.5423 6.54069 91.876 8.01367 91.876 9.67383V10.5649C91.876 12.2495 91.5382 13.7306 90.8628 15.0083C90.1955 16.286 89.2393 17.2707 87.9941 17.9624C86.7572 18.6541 85.3371 19 83.7339 19H78.6191ZM81.7075 3.7168V16.5342H83.7217C85.3411 16.5342 86.5822 16.0296 87.4448 15.0205C88.3156 14.0033 88.7591 12.5465 88.7754 10.6504V9.66162C88.7754 7.73291 88.3563 6.25993 87.5181 5.24268C86.6799 4.22542 85.4632 3.7168 83.8682 3.7168H81.7075ZM108.227 13.458C108.024 15.3298 107.352 16.762 106.213 17.7549C105.082 18.7477 103.572 19.2441 101.684 19.2441C100.366 19.2441 99.1979 18.9146 98.1807 18.2554C97.1715 17.5962 96.3903 16.6644 95.8369 15.46C95.2835 14.2474 95.0028 12.8639 94.9946 11.3096V9.00244C94.9946 7.42367 95.2713 6.02393 95.8247 4.80322C96.3781 3.58252 97.1715 2.64258 98.2051 1.9834C99.2467 1.31608 100.443 0.982422 101.794 0.982422C103.698 0.982422 105.2 1.49919 106.298 2.53271C107.405 3.55811 108.048 4.97819 108.227 6.79297H106.713C106.339 3.77376 104.699 2.26416 101.794 2.26416C100.183 2.26416 98.8968 2.86637 97.9365 4.0708C96.9844 5.27523 96.5083 6.93945 96.5083 9.06348V11.2363C96.5083 13.2871 96.9722 14.9229 97.8999 16.1436C98.8358 17.3643 100.097 17.9746 101.684 17.9746C103.255 17.9746 104.439 17.6003 105.236 16.8516C106.034 16.0947 106.526 14.9635 106.713 13.458H108.227ZM113.958 19H112.457V1.22656H113.958V19ZM130.736 2.5083H124.645V19H123.144V2.5083H117.064V1.22656H130.736V2.5083ZM139.275 10.9189L144.707 1.22656H146.44L140.02 12.3105V19H138.518V12.3105L132.109 1.22656H133.892L139.275 10.9189Z" fill="black"/>
</svg>
