<svg width="41" height="40" viewBox="0 0 41 40" fill="none" xmlns="http://www.w3.org/2000/svg">
<ellipse cx="20.3987" cy="20" rx="20.3987" ry="20" fill="#F2C94C"/>
<g clip-path="url(#clip0)">
<path d="M18.3039 25.8855C17.334 25.8855 16.5449 26.6746 16.5449 27.6444C16.5449 28.6143 17.334 29.4034 18.3039 29.4034C19.2738 29.4034 20.0628 28.6143 20.0628 27.6444C20.0628 26.6746 19.2737 25.8855 18.3039 25.8855ZM18.3039 28.4212C17.8755 28.4212 17.527 28.0727 17.527 27.6444C17.527 27.216 17.8755 26.8675 18.3039 26.8675C18.7322 26.8675 19.0807 27.216 19.0807 27.6444C19.0807 28.0728 18.7322 28.4212 18.3039 28.4212Z" fill="black"/>
<path d="M24.4738 25.8855C23.5039 25.8855 22.7148 26.6746 22.7148 27.6444C22.7148 28.6143 23.5039 29.4034 24.4738 29.4034C25.4437 29.4034 26.2327 28.6143 26.2327 27.6444C26.2327 26.6746 25.4436 25.8855 24.4738 25.8855ZM24.4738 28.4212C24.0454 28.4212 23.697 28.0727 23.697 27.6444C23.697 27.216 24.0455 26.8675 24.4738 26.8675C24.9022 26.8675 25.2506 27.216 25.2506 27.6444C25.2506 28.0728 24.9021 28.4212 24.4738 28.4212Z" fill="black"/>
<path d="M24.907 16.6248H17.87C17.5988 16.6248 17.3789 16.8446 17.3789 17.1158C17.3789 17.387 17.5988 17.6069 17.87 17.6069H24.907C25.1783 17.6069 25.3981 17.387 25.3981 17.1158C25.3981 16.8446 25.1783 16.6248 24.907 16.6248Z" fill="black"/>
<path d="M24.5238 19.1748H18.2528C17.9816 19.1748 17.7617 19.3946 17.7617 19.6659C17.7617 19.9371 17.9816 20.1569 18.2528 20.1569H24.5238C24.795 20.1569 25.0148 19.9371 25.0148 19.6659C25.0148 19.3947 24.795 19.1748 24.5238 19.1748Z" fill="black"/>
<path d="M29.6969 14.4367C29.5097 14.2069 29.2322 14.0751 28.9357 14.0751H13.6398L13.3309 12.5755C13.2664 12.2627 13.053 12 12.76 11.8728L10.6047 10.9373C10.3558 10.8292 10.0667 10.9434 9.95873 11.1921C9.85068 11.4409 9.96486 11.7302 10.2136 11.8381L12.369 12.7737L14.745 24.3073C14.8386 24.7616 15.2431 25.0912 15.7069 25.0912H27.4712C27.7424 25.0912 27.9623 24.8714 27.9623 24.6002C27.9623 24.329 27.7424 24.1091 27.4712 24.1091H15.7069L15.4179 22.7062H27.5621C28.0259 22.7062 28.4305 22.3765 28.524 21.9222L29.8976 15.2552C29.9574 14.9649 29.8843 14.6665 29.6969 14.4367ZM27.5621 21.7241H15.2156L13.8421 15.0572L28.9356 15.0572L27.5621 21.7241Z" fill="black"/>
</g>
<defs>
<clipPath id="clip0">
<rect width="20" height="20" fill="white" transform="translate(9.91797 10.1499)"/>
</clipPath>
</defs>
</svg>
