<svg width="30" height="30" viewBox="0 0 30 30" fill="none" xmlns="http://www.w3.org/2000/svg">
<path d="M29.2037 10.2951L19.7041 0.795211C19.1913 0.282435 18.5074 0 17.7784 0C17.0494 0 16.3655 0.282317 15.8527 0.795094L0.795176 15.8534C0.282422 16.3662 0 17.05 0 17.7791C0 18.5081 0.282422 19.1921 0.795176 19.7048L1.96658 20.8762C1.9667 20.8763 1.96676 20.8764 1.96688 20.8765C1.96699 20.8767 1.96711 20.8768 1.96723 20.8769L9.83989 28.7499H8.74981C8.40469 28.7499 8.12485 29.0297 8.12485 29.3749C8.12485 29.72 8.40469 29.9999 8.74981 29.9999H12.2179C12.2187 29.9999 12.2195 29.9999 12.2203 29.9999C12.2211 29.9999 12.2219 29.9999 12.2227 29.9999L21.2493 30C21.5944 30 21.8742 29.7201 21.8742 29.375C21.8742 29.0298 21.5944 28.75 21.2493 28.75L14.601 28.7499L29.2037 14.1465C30.2654 13.0846 30.2654 11.3569 29.2037 10.2951ZM28.3198 13.2626L13.2622 28.321C12.986 28.5971 12.6169 28.7493 12.2226 28.7499H12.2179C11.8237 28.7493 11.4547 28.5971 11.1786 28.321L3.29268 20.4346L17.7533 5.9732C17.9974 5.72914 17.9974 5.33338 17.7533 5.08933C17.5092 4.84528 17.1136 4.84528 16.8694 5.08939L2.40879 19.5508L1.67895 18.8209C1.40232 18.5443 1.24998 18.1743 1.24998 17.7791C1.24998 17.384 1.40232 17.0139 1.679 16.7372L16.7365 1.67902C17.0132 1.40239 17.3832 1.25004 17.7784 1.25004C18.1736 1.25004 18.5436 1.40239 18.8203 1.67908L22.2013 5.06021L7.74047 19.5218C7.49643 19.7658 7.49643 20.1616 7.74047 20.4057C7.86252 20.5277 8.02248 20.5887 8.18238 20.5887C8.34229 20.5887 8.50225 20.5277 8.6243 20.4057L23.0851 5.94413L28.3198 11.1789C28.8942 11.7534 28.8942 12.6882 28.3198 13.2626Z" fill="black"/>
<path d="M15.3985 18.0508C15.1545 17.8068 14.7588 17.8068 14.5146 18.0508L9.59661 22.969C9.35256 23.213 9.35256 23.6087 9.59661 23.8529C9.71866 23.975 9.87862 24.036 10.0385 24.036C10.1984 24.036 10.3584 23.9749 10.4804 23.8529L15.3985 18.9347C15.6426 18.6906 15.6426 18.2949 15.3985 18.0508Z" fill="black"/>
<path d="M13.3813 22.7196L11.3642 24.7368C11.1201 24.9808 11.1201 25.3766 11.3642 25.6207C11.4862 25.7427 11.6462 25.8037 11.8061 25.8037C11.9661 25.8037 12.126 25.7427 12.248 25.6207L14.2651 23.6035C14.5092 23.3595 14.5092 22.9637 14.2651 22.7196C14.0211 22.4755 13.6255 22.4755 13.3813 22.7196Z" fill="black"/>
<path d="M15.2373 20.8634L14.9721 21.1285C14.728 21.3726 14.728 21.7683 14.9721 22.0124C15.0941 22.1345 15.2541 22.1955 15.414 22.1955C15.5739 22.1955 15.7339 22.1345 15.8559 22.0124L16.121 21.7473C16.3651 21.5033 16.3651 21.1076 16.1211 20.8635C15.8771 20.6194 15.4813 20.6194 15.2373 20.8634Z" fill="black"/>
<path d="M23.8518 9.597C23.7347 9.4798 23.5757 9.41394 23.4099 9.41394C23.2442 9.41394 23.0853 9.4798 22.968 9.597L20.3163 12.2487C20.1992 12.366 20.1333 12.5249 20.1333 12.6906C20.1333 12.8564 20.1992 13.0154 20.3163 13.1326L22.0841 14.9003C22.2062 15.0223 22.3661 15.0833 22.526 15.0833C22.6861 15.0833 22.8459 15.0223 22.968 14.9003L25.6195 12.2487C25.8635 12.0046 25.8635 11.6088 25.6195 11.3648L23.8518 9.597ZM22.526 13.5745L21.6421 12.6906L23.4099 10.9229L24.2937 11.8068L22.526 13.5745Z" fill="black"/>
<path d="M18.77 4.698C18.93 4.698 19.09 4.63694 19.212 4.51483L19.4771 4.24956C19.7211 4.00545 19.721 3.60969 19.4769 3.36569C19.2329 3.1217 18.8371 3.12175 18.5931 3.36587L18.328 3.63113C18.084 3.87525 18.084 4.27101 18.3281 4.515C18.4502 4.63706 18.61 4.698 18.77 4.698Z" fill="black"/>
<path d="M6.28215 20.9802L6.01702 21.2453C5.77297 21.4893 5.77297 21.8851 6.01702 22.1293C6.13907 22.2513 6.29903 22.3123 6.45893 22.3123C6.61883 22.3123 6.7788 22.2513 6.90085 22.1293L7.16598 21.8641C7.41003 21.62 7.41003 21.2243 7.16598 20.9802C6.92188 20.7361 6.52626 20.7361 6.28215 20.9802Z" fill="black"/>
</svg>
